<svg class="icono-opcion" version="1.1" id="Capa_1" xmlns="http://www.w3.org/2000/svg" xmlns:xlink="http://www.w3.org/1999/xlink" x="0px" y="0px"
	 viewBox="0 0 512 512" style="enable-background:new 0 0 512 512;" xml:space="preserve">

<style type="text/css">
	.st0{fill:#2F2C2D;}
	.st1{fill:#FEFEFE;}
	.st2{fill:#F7F7F7;}
	.st3{fill:#FAF9FA;}
	.st4{fill:#252022;}
</style>
<g>
	<path class="st0" d="M267.72,483.03c-46,0-92.01,0.04-138.01-0.02c-21.55-0.03-31.71-8.95-34.7-30.37
		c-10.37-74.23-20.71-148.47-31.05-222.7c-2.57-18.46,8.17-31.39,27.35-31.26c8.26,0.06,10.96-2.54,12.1-10.42
		c4.23-29.13,9.03-58.17,13.85-87.21c3.19-19.2,10.99-24.94,29.83-22.62c21.78,2.68,21.78,2.68,25.6-19.35
		c0.48-2.78,0.94-5.57,1.39-8.35c2.82-17.19,11.32-23.88,28.54-21.22c64.56,9.98,128.98,20.99,193.66,30.1
		c40.47,5.7,39.81,15.94,33.61,48.64c-4.13,21.77-6.91,43.8-10.66,65.65c-1.09,6.37-1.54,9.81,7.04,11.03
		c16.22,2.3,23.41,13.19,21.96,31.82c-5.91,75.98-12.13,151.94-18.23,227.9c-0.52,6.43-0.98,12.87-1.5,19.3
		c-1.23,15.27-5.13,19.03-20.35,19.05C361.34,483.07,314.53,483.03,267.72,483.03z M363.22,245.14c-1.44-6.65-6.84-4.46-10.81-4.47
		c-55.68-0.12-111.36-0.12-167.04-0.02c-4.11,0.01-9.26-1.72-11.18,4.34c-7.97,0.74-12.82-4.9-17.08-9.81
		c-15.82-18.21-35.17-24.46-59.03-22.12c-18,1.77-20.53,2.81-18.02,20.87c9.98,71.77,20.1,143.53,30.33,215.27
		c2.4,16.83,5.32,19.02,23.09,19.02c86.68,0.02,173.36-0.22,260.04,0.29c10.94,0.06,12.29-3.02,10.69-12.73
		c-10.83-65.92-21.22-131.92-31.6-197.91C371.67,251.71,369.29,247.23,363.22,245.14z M259.28,230.76c25.79,0,51.59-0.25,77.37,0.16
		c7.07,0.11,9.55-1.82,10.57-9.08c3.87-27.5,8.36-54.93,13.15-82.29c1.58-9.02-1.64-12.08-10.27-13.42
		c-68.42-10.65-136.79-21.63-205.15-32.66c-7.52-1.21-11.08,0.95-12.26,8.85c-4.16,27.87-8.56,55.71-13.53,83.44
		c-1.71,9.55-0.35,14.22,10.65,13.11c5.73-0.58,10.85,2.64,15.27,6.38c7.38,6.24,15,12.25,21.97,18.91
		c5.36,5.12,11.13,6.83,18.47,6.71C210.11,230.47,234.7,230.72,259.28,230.76z M388.39,260.97c1.96-8.51,3.52-13.87,4.39-19.33
		c7.7-48.12,15.23-96.27,22.93-144.39c2.89-18.08,3.04-18.03-14.5-20.83c-59.7-9.52-119.41-19.05-179.11-28.61
		c-32.16-5.15-31.85-5.14-36.21,27.05c-1.08,8,0.76,10.11,8.66,11.29c53,7.93,105.93,16.38,158.84,24.89
		c18.74,3.01,25.01,11.69,22.22,30.13c-4.04,26.7-8.43,53.35-12.44,80.05c-0.5,3.33-4.04,8.4,2.79,9.62
		C381.31,233.58,387.05,244.07,388.39,260.97z M414.1,421.19c0.71-0.02,1.42-0.04,2.13-0.05c5.6-68.6,11.21-137.19,16.75-205.8
		c0.22-2.76,0.37-5.82-0.57-8.32c-2.1-5.59-6.82-7.35-12.58-7.39c-6.39-0.04-5.33,4.87-5.93,8.5c-3.16,19.05-6.78,38.05-9.09,57.2
		c-2.63,21.76-9.78,42.96-5.38,65.62C405.23,360.85,409.29,391.09,414.1,421.19z"/>
	<path class="st1" d="M363.22,245.14c6.06,2.09,8.45,6.57,9.42,12.73c10.37,66,20.76,131.99,31.6,197.91
		c1.6,9.72,0.24,12.8-10.69,12.73c-86.68-0.51-173.36-0.27-260.04-0.29c-17.77,0-20.69-2.19-23.09-19.02
		c-10.23-71.74-20.35-143.49-30.33-215.27c-2.51-18.06,0.01-19.1,18.02-20.87c23.86-2.35,43.21,3.91,59.03,22.12
		c4.26,4.9,9.11,10.54,17.08,9.81C237.2,245.04,300.21,245.09,363.22,245.14z"/>
	<path class="st2" d="M259.28,230.74c-24.58-0.02-49.17-0.27-73.75,0.13c-7.35,0.12-13.11-1.59-18.47-6.71
		c-6.98-6.67-14.59-12.67-21.97-18.91c-4.41-3.73-9.54-6.95-15.27-6.38c-11,1.11-12.36-3.57-10.65-13.11
		c4.97-27.73,9.36-55.57,13.53-83.44c1.18-7.9,4.74-10.07,12.26-8.85c68.36,11.03,136.73,22.01,205.15,32.66
		c8.63,1.34,11.84,4.4,10.27,13.42c-4.78,27.36-9.28,54.79-13.15,82.29c-1.02,7.26-3.5,9.19-10.57,9.08
		C310.87,230.51,285.07,230.76,259.28,230.74z M149.57,165.05c-5.39-0.28-8.91,1.25-9.68,6.12c-0.74,4.74,1.79,7.64,6.3,8.75
		c2.34,0.58,4.76,0.81,7.14,1.19c54.02,8.64,108.04,17.29,162.07,25.88c5.8,0.92,13.06,3.55,14.51-5.35
		c1.42-8.68-5.91-8.94-11.92-9.89c-32.58-5.19-65.14-10.43-97.72-15.6C196.43,172.36,172.59,168.66,149.57,165.05z M326.29,166.49
		c5.31,0.7,10.14,0.16,10.91-6.32c0.76-6.43-4.01-8.08-9.12-8.9c-56.15-8.93-112.31-17.84-168.47-26.75
		c-5.44-0.86-11.27-1.38-12.55,5.64c-1.25,6.85,3.72,8.77,9.55,9.6c10.78,1.55,21.5,3.48,32.25,5.17
		C234.67,152.13,280.48,159.31,326.29,166.49z"/>
	<path class="st3" d="M388.39,260.97c-1.34-16.91-7.08-27.4-22.42-30.14c-6.83-1.22-3.29-6.29-2.79-9.62
		c4.01-26.7,8.39-53.35,12.44-80.05c2.79-18.43-3.48-27.11-22.22-30.13c-52.91-8.51-105.84-16.96-158.84-24.89
		c-7.9-1.18-9.74-3.29-8.66-11.29c4.36-32.19,4.04-32.2,36.21-27.05c59.7,9.56,119.4,19.09,179.11,28.61
		c17.54,2.8,17.39,2.75,14.5,20.83c-7.7,48.12-15.22,96.27-22.93,144.39C391.91,247.11,390.35,252.46,388.39,260.97z"/>
	<path class="st2" d="M414.1,421.19c-4.81-30.1-8.86-60.34-14.67-90.24c-4.4-22.66,2.75-43.86,5.38-65.62
		c2.31-19.15,5.93-38.15,9.09-57.2c0.6-3.64-0.46-8.55,5.93-8.5c5.76,0.04,10.49,1.8,12.58,7.39c0.94,2.5,0.8,5.56,0.57,8.32
		c-5.54,68.6-11.15,137.2-16.75,205.8C415.52,421.15,414.81,421.17,414.1,421.19z"/>
	<path class="st4" d="M363.22,245.14c-63.01-0.05-126.02-0.1-189.03-0.15c1.92-6.06,7.07-4.33,11.18-4.34
		c55.68-0.1,111.36-0.11,167.04,0.02C356.38,240.68,361.78,238.49,363.22,245.14z"/>
	<path class="st0" d="M149.57,165.05c23.02,3.61,46.86,7.31,70.7,11.1c32.58,5.17,65.15,10.42,97.72,15.6
		c6.01,0.96,13.34,1.21,11.92,9.89c-1.46,8.9-8.71,6.28-14.51,5.35c-54.03-8.6-108.05-17.25-162.07-25.88
		c-2.38-0.38-4.8-0.62-7.14-1.19c-4.51-1.11-7.04-4.01-6.3-8.75C140.65,166.3,144.18,164.77,149.57,165.05z"/>
	<path class="st0" d="M326.29,166.49c-45.81-7.18-91.62-14.35-137.43-21.55c-10.76-1.69-21.48-3.62-32.25-5.17
		c-5.83-0.84-10.81-2.76-9.55-9.6c1.28-7.02,7.12-6.5,12.55-5.64c56.16,8.91,112.31,17.82,168.47,26.75
		c5.11,0.81,9.88,2.47,9.12,8.9C336.43,166.65,331.6,167.19,326.29,166.49z"/>
</g>
		<text x="240" y="400" font-family="Poppins" font-size="150" fill="#000"></text>
</svg>