<svg class="icono-dinero" version="1.1" id="Capa_1" xmlns="http://www.w3.org/2000/svg" xmlns:xlink="http://www.w3.org/1999/xlink" x="0px" y="0px"
	 viewBox="0 0 512 512" style="enable-background:new 0 0 512 512;" xml:space="preserve">

<style type="text/css">
	.st0{fill:#020203;}
	.st1{fill:#585857;}
	.st2{fill:#ACABAB;}
	.st3{fill:#FBD1A2;}
	.st4{fill:#D8D9A9;}
	.st5{fill:#B5B683;}
	.st6{fill:#808181;}
	.st7{fill:#C6C6AC;}
	.st8{fill:#7F7F7F;}
	.st9{fill:#20211A;}
	.st10{fill:#979797;}
	.st11{fill:#554737;}
	.st12{fill:#695845;}
	.st13{fill:#939473;}
	.st14{fill:#A8A8A8;}
	.st15{fill:#4B4A4B;}
	.st16{fill:#4D4D4D;}
	.st17{fill:#ACAD86;}
	.st18{fill:#7A7B5F;}
	.st19{fill:#959574;}
	.st20{fill:#999A77;}
	.st21{fill:#949574;}
	.st22{fill:#50503A;}
	.st23{fill:#7AC9D8;}
	.st24{fill:#7F8080;}
</style>
<g>
	<path class="st0" d="M465.26,245.87c7.74,25.16,6.24,49.61-5.38,73.32c-0.45,0.93-1.57,1.89-1.03,2.91
		c0.61,1.17,1.96,0.38,2.94,0.34c8.4-0.4,16.54,0.66,23.94,4.91c7.75,4.45,13.04,10.71,12.34,20.38
		c-0.47,6.54-4.14,11.48-8.71,15.81c-4.19,3.96-9.21,6.7-14.09,9.63c-23.47,14.14-46.92,28.29-70.44,42.34
		c-9.37,5.6-19.82,8.66-29.96,12.38c-23.94,8.81-48.11,16.96-72.62,24.02c-4.86,1.4-9.77,2.26-14.86,2.46
		c-37.63,1.49-75.26,3.1-112.89,4.67c-9.22,0.38-18.44,0.83-27.66,1.07c-2.41,0.06-3.66,0.63-4.7,3.14
		c-3.47,8.34-9.42,14.96-15.78,21.15c-8.39,8.17-17.58,15.21-28.43,19.79c-0.79,0.34-1.62,0.56-1.69,1.63c-6.23,0-12.45,0-18.68,0
		c-4.77-0.96-7.09-4.6-8.82-8.64c-4.59-10.75-8.78-21.67-13.15-32.51c-4.97-12.35-10.03-24.66-14.96-37.03
		c-8.29-20.82-16.85-41.52-25.01-62.39c-3.07-7.86-1.57-14.43,4.6-20.03c3.2-2.9,6.78-5.3,10.77-7.01c1.45-0.12,2.61-0.96,3.84-1.61
		c16.66-6.07,33.62-8.68,51.19-4.73c2.65,0.6,5.13,1.58,7.5,2.88c1.18,0.65,2.31,1.02,3.59,0.09c5.04-3.65,9.63-7.84,14.79-11.86
		c-1.71-0.99-3.24-1.08-4.61-1.57c-8.25-2.94-13.56-9.98-14.11-18.8c-0.07-1.19-0.06-2.39-0.06-3.58
		c0-74.81,0.02-149.62-0.04-224.44c-0.01-7.14,1.95-13.17,7.29-18.04c4.27-3.9,9.49-4.81,14.87-5.35c1.71-0.17,3.43-0.09,5.15-0.09
		c45.51,0,91.01,0,136.52-0.02c1.24,0,2.94,0.64,3.6-0.55c0.67-1.2-0.83-2.28-1.43-3.38c-1.81-3.32-4.22-6.31-5.28-10.02
		c-0.78-3.57-1.12-7.14-0.04-10.71c3.07-8.34,10.11-10.32,17.72-10.95c12.21-1.01,23.83,1.91,35.03,6.52
		c3.54,1.46,5.72,0.8,8.49-1.72c6.91-6.29,15.25-9.84,24.44-11.28c3.2-0.07,6.36-0.42,9.41-1.47c0.82-0.28,1.64-0.46,2.5-0.48
		c3.39-0.08,6.82-0.49,10.16-0.48c5.97,0.01,12.03-0.11,17.93,1.8c2.78,0.9,5.82,1.09,8.76,1.53c6.47,1.41,12.42,3.99,17.44,8.41
		c7.26,6.4,8.69,14.03,3.74,22.37c-7.32,12.34-14.93,24.5-22.56,36.65c-1.36,2.16-1.35,3.17,0.78,4.89
		c8.62,6.96,11.27,17.94,7.47,29.38c-0.61,1.01-0.59,2.29-1.42,3.2c-2.53,3.81-5.35,7.36-9.52,9.43c-1.99,0.99-2.06,1.83-0.6,3.52
		c10.21,11.85,20.39,23.73,30.44,35.71c13.94,16.63,27.42,33.6,38.17,52.6c4.69,8.28,8.85,16.81,11.86,25.87
		C464.48,243.23,464.58,244.64,465.26,245.87z"/>
	<path class="st1" d="M465.26,245.87c-1.14-1.08-1.49-2.41-1.25-3.94C464.79,243.13,465.33,244.4,465.26,245.87z"/>
	<path class="st2" d="M393.66,114.8c0.08-1.25,0.66-2.26,1.42-3.2C395.29,112.98,394.88,114.07,393.66,114.8z"/>
	<path class="st3" d="M313.9,432.18c-7.22,2.05-14.33,4.77-21.68,5.95c-7.58,1.22-15.39,1.01-23.1,1.32
		c-41.92,1.73-83.84,3.37-125.75,5.28c-3.48,0.16-4.69-0.86-5.9-3.9c-11.45-28.72-23.07-57.38-34.69-86.03
		c-0.55-1.37-0.78-2.27,0.56-3.33c13.03-10.23,25.41-21.32,39.49-30.18c19.25-12.11,40.39-15.55,62.57-14.89
		c21.58,0.64,43,3.13,64.45,5.37c1.05,0.11,2.08,0.49,3.12,0.76c4.24,1.12,8.08,3.04,9.16,7.67c1.1,4.69-1.33,8.44-4.6,11.5
		c-4.34,4.05-9.65,6.15-15.48,6.34c-13.41,0.43-26.82-0.26-40.22-0.58c-8.58-0.2-17.16-0.38-25.75-0.5
		c-4.8-0.06-7.87,2.45-8.43,6.68c-0.55,4.21,1.78,7.58,6.35,8.83c12.3,3.36,24.62,6.64,36.94,9.95
		c18.94,5.08,37.88,10.18,56.83,15.2c10.25,2.72,20.82,2.77,31.29,3.39c8.99,0.54,18.01,0.39,27.03,0.25
		c7.68-0.13,14.32-3.42,21.14-6.22c27.07-11.12,54.07-22.42,81.16-33.51c9.05-3.71,18.43-5.24,27.88-1.48
		c7.78,3.09,8.48,7.49,1.88,12.64c-7.56,5.91-16.16,10.22-24.32,15.19c-18.91,11.5-37.87,22.93-56.9,34.24
		c-8.55,5.08-18.17,7.61-27.36,11.16c-3.5,1.35-7.03,2.62-10.54,3.92c-1.21,0.71-2.6,0.85-3.9,1.3c-12.43,4.15-24.87,8.3-37.3,12.45
		C316.58,431.57,315.2,431.77,313.9,432.18z"/>
	<path class="st4" d="M150.14,299.85c-2.25,0.39-4.27,1.48-6.11,2.7c-4.02,2.65-8.28,3.53-13.03,3.28
		c-5.55-0.29-11.12-0.09-16.68-0.11c-1.1-0.36-2.36-0.28-3.24-1.23c-1.63-1.42-1.25-3.35-1.25-5.16
		c-0.01-52.59-0.01-105.18-0.01-157.77c0-1.3-0.09-2.59-0.14-3.89c-0.95-1.77-1.15-3.68-1.15-5.67c0.02-18.78,0-37.57,0.02-56.35
		c0.01-6.42,1.87-8.3,8.33-8.3c61.06-0.02,122.12-0.02,183.18-0.01c1.07,0,2.15-0.01,3.21,0.22c2.52,0.54,4.1,2.4,4.22,4.97
		c0.05,0.98,0.01,1.95,0.01,2.93c0,74.37,0,148.74,0,223.11c0,7.17-0.41,7.12-7.4,7.68c-5.92,0.47-10.8-1.43-15.57-4.42
		c-3.82-2.4-7.93-4.09-12.32-5.05c-1.04-2.2,0.91-2.65,2.04-3.58c0.83-0.5,1.71-0.9,2.58-1.33c7.75-3.82,12.02-10.04,12.11-18.81
		c0.18-16.17,0.29-32.34-0.03-48.5c-0.21-10.57-6.72-18.26-16.29-20.22c-9.82-2.01-20.4,4.73-22.78,14.56
		c-0.74,3.06-1.14,6.17-1.13,9.35c0.02,13.89,0,27.78,0.01,41.67c0.01,9.44,2.94,17.26,11.87,21.74c1.04,0.52,2.12,1.16,2.09,2.62
		c-0.8,1.61-2.16,1.39-3.54,1.13c-4.18-0.88-8.47-0.86-12.69-1.14c-5.92-0.4-11.74-1.93-17.71-1.6c-1.46-0.79-3.07-0.4-4.61-0.59
		c-1.52-0.19-3.33-0.17-3.09-2.58c0.43-1.52,1.66-2.49,2.6-3.64c2.79-3.42,4.68-7.53,4.75-11.72c0.07-3.95-0.6-8.17-3.49-11.64
		c-1.87-2.24-3.47-4.54-6.09-6.03c-6.36-3.62-12.76-5.28-19.68-1.47c-0.98,0.54-2.18,0.86-3.3,1.21
		c-9.89,6.37-12.07,21.06-4.46,30.13c0.88,1.36,3.35,2.12,2.55,3.99c-0.72,1.68-2.91,0.73-4.43,0.79
		C175.84,291.59,162.74,294.55,150.14,299.85z"/>
	<path class="st5" d="M264.43,353.88c5.73-1.31,10.53-2.32,14.93-4.67c10.32-5.5,17.24-13.49,18.5-25.6
		c0.27-2.6,1.84-2.21,3.39-2.15c7.54,0.28,13.62-2.46,17.96-8.8c2.54-3.71,3.24-7.89,3.23-12.36c-0.06-37.14-0.03-74.28-0.03-111.42
		c0-19,0.1-38.01-0.09-57.01c-0.04-3.47,1.03-4.08,4.15-4.03c11.48,0.18,22.97,0.09,34.45,0.05c1.57-0.01,2.84,0.21,3.95,1.56
		c19.41,23.75,40.34,46.22,58.54,70.98c10.53,14.32,20.04,29.29,25.8,46.29c10.04,29.65,6.31,57.01-13.81,81.53
		c-2,2.43-4.54,3.54-7.18,4.63c-25.18,10.43-50.38,20.8-75.56,31.21c-2.21,0.91-4.46,1.47-6.86,1.53
		c-16.44,0.4-32.87,0.11-49.15-2.19c-9.43-1.33-18.48-4.68-27.69-7.14C267.65,355.95,266.5,355.01,264.43,353.88z"/>
	<path class="st6" d="M76.4,345.49c5.74-0.29,5.79-0.31,7.72,4.47c14.75,36.51,29.46,73.02,44.22,109.52
		c0.49,1.21,0.8,2.22-0.28,3.22c-11.82,11.04-23.57,22.19-39.01,28.05c-4,1.52-4.74,1-6.31-2.9c-12.69-31.5-25.4-63-38.1-94.5
		c-4.37-10.84-8.62-21.72-13.11-32.5c-0.99-2.37-0.28-3.59,1.52-4.83c5.53-3.81,11.86-5.56,18.25-6.9
		C59.8,347.34,68.39,346.06,76.4,345.49z"/>
	<path class="st5" d="M346.09,76.06c-6.87,0-13.73-0.08-20.59,0.05c-2.31,0.04-3.33-0.5-3.12-3.05
		c0.86-10.32-7.72-20.83-20.48-20.51c-5.79,0.14-11.58-0.03-17.38,0.05c-1.68,0.02-2.74-0.48-3.64-2
		c-3.15-5.29-6.38-10.54-9.71-15.72c-1.35-2.11-0.92-2.69,1.46-2.83c10.89-0.64,20.98,2.43,30.84,6.59
		c2.67,1.13,5.23,2.49,7.92,3.55c3.44,1.36,7.04,0.6,8.82-2.56c5.86-10.43,15.69-14.01,26.36-15.91
		c14.23-2.53,28.39-2.05,42.25,2.59c2.25,0.75,4.34,1.81,6.22,3.32c1.43,1.15,1.63,2.37,0.66,3.94
		c-8.47,13.69-16.93,27.38-25.37,41.1c-0.82,1.34-2,1.41-3.33,1.4C360.03,76.05,353.06,76.06,346.09,76.06z"/>
	<path class="st0" d="M228.33,292.04c10.26,0.92,20.51,1.83,30.77,2.75c3.22,0.48,6.48-0.57,9.71,0.25c1.1,0.28,2.37-0.03,3.14,1.16
		c7.12,1.39,13.8,3.74,19.12,9.04c0.6,0.6,1.38,0.51,2.13,0.51c3.01,0,6.01,0.05,9.02-0.01c3.25-0.07,4.58-1.49,4.67-4.83
		c0.02-0.65,0.01-1.3,0.01-1.95c0-74.61,0-149.21,0-223.82c0-6.08-0.69-6.79-6.58-6.79c-61.29,0-122.58,0-183.87,0
		c-5.89,0-6.63,0.76-6.63,6.79c0,19.66,0,39.31-0.01,58.97c0,1.19-0.09,2.38-0.14,3.57c-1.97-1.18-2.51-2.92-2.5-5.21
		c0.07-19.11,0.21-38.22-0.07-57.32c-0.08-5.55,5.1-9.87,9.97-9.86c60.84,0.12,121.69,0.08,182.53,0.08c5.69,0,8.56,2.92,8.56,8.73
		c0,75.02,0,150.03,0,225.05c0,7.31,0,7.31-7.14,7.31c-2.15,0-4.3-0.08-6.44,0.02c-2.21,0.11-4.14-0.18-5.92-1.78
		c-1.66-1.48-4.2-0.87-6.11-2.44c-1.13-0.93-2.91-1.13-3.68-2.75c-0.13-0.26-0.56-0.66-0.7-0.6c-2.29,0.97-4.07-1.32-5.61-1.25
		c-2.53,0.11-4.69-1.15-7.08-0.97c-1.35,0.1-2.78-0.32-3.96,0.84c-0.66,0.66-1.58,0.41-1.97-0.26c-1.39-2.39-3.68-2.18-5.7-1.81
		c-3.14,0.57-5.99-1.2-9.06-0.73c-0.84,0.13-1.9-0.08-2.48,0.37c-1.53,1.16-2.46,1-3.18-0.8c-0.41-1.02-1.4-0.96-2.23-0.85
		c-5.83,0.75-11.61-1.64-17.45-0.23c-0.97,0.24-1.58-0.33-1.26-1.24c0.45-1.27,0.52-2.57,1.56-3.78c2.95-3.45,6.49-6.68,6.66-11.78
		c0.03-0.78,0.62-1.04,1.15-1.41c0.99-0.69,1.04-2.04,0.43-2.57c-1.6-1.4-1-3.3-1.58-4.85c-1.61-4.29-4.01-8.11-8.48-10.04
		c-1.26-0.55-2.51-1.04-3.65-1.95c-3.62-2.89-9.93-2.7-13.82,0.06c-1.35,0.96-3.07,0.37-4.62,0.54c6.15-4.86,12.92-5.27,19.9-2.44
		c7.42,3.01,11.87,8.68,12.94,16.73c1,7.47-1.41,13.83-6.92,18.94c-1.42,1.23-0.52,1.6,0.67,2.04
		C224.36,292.19,226.41,291.39,228.33,292.04z"/>
	<path class="st7" d="M348.38,91.85c7.28,0,14.57-0.03,21.85,0.01c6.59,0.04,11.07,4.12,11.09,10.01
		c0.02,6.09-4.49,10.33-11.15,10.35c-15,0.04-29.99-0.03-44.99,0.07c-2.3,0.02-2.91-0.72-2.84-2.95c0.15-4.98,0.14-9.97,0-14.95
		c-0.05-2.04,0.67-2.58,2.58-2.56C332.74,91.9,340.56,91.85,348.38,91.85z"/>
	<path class="st8" d="M213.33,273.19c0.09,3.08-2.29,5.68-5.3,5.79c-2.76,0.1-5.39-2.36-5.53-5.19c-0.17-3.32,2.18-5.88,5.4-5.89
		C210.76,267.89,213.24,270.31,213.33,273.19z"/>
	<path class="st9" d="M150.14,299.85c6.28-3.62,13.23-5.23,20.18-6.79c6.37-1.43,12.85-2.1,19.37-2.34
		c1.36-0.05,2.77,0.14,4.22-0.53c-0.18-1.76-2.25-2.24-2.54-3.85c1.84,1.06,4.35,2.43,3.9,4.41c-0.36,1.61-3.24,0.64-4.99,0.72
		c-11.99,0.55-23.68,2.55-34.95,6.87C153.66,298.98,152,299.81,150.14,299.85z"/>
	<path class="st10" d="M254.65,36.71c-1.95-3.49-2.03-6.98,0.01-10.47C253.8,29.73,253.96,33.22,254.65,36.71z"/>
	<path class="st11" d="M355.12,418.51c1.19-0.78,2.43-1.38,3.9-1.3C357.98,418.42,356.64,418.75,355.12,418.51z"/>
	<path class="st12" d="M313.9,432.18c1.2-0.77,2.48-1.28,3.93-1.22C316.74,432.12,315.4,432.42,313.9,432.18z"/>
	<path class="st13" d="M111.07,304.49c1.08,0.41,2.16,0.82,3.24,1.23C112.95,306.07,111.79,305.88,111.07,304.49z"/>
	<path class="st14" d="M31.2,339.06c0.85-1.04,1.91-1.56,3.26-1.3C33.5,338.52,32.5,339.17,31.2,339.06z"/>
	<path class="st15" d="M357.62,6.91c-1.46,0.54-2.24,0.61-3.14,0.28C355.25,6.31,356.08,6.86,357.62,6.91z"/>
	<path class="st16" d="M372.75,7.1c-0.71,0.45-1.36,0.35-2.1,0.01C371.38,6.6,372.03,6.56,372.75,7.1z"/>
	<path class="st0" d="M207.99,135.3c-22.21,0-44.42-0.01-66.63,0.01c-4.57,0-8.99-0.55-12.96-3.06c-5.28-3.33-8.4-7.99-8.46-14.42
		c-0.06-7.38-0.16-14.77,0.02-22.14c0.24-9.66,7.7-16.7,18.18-17.43c1.18-0.08,2.36-0.07,3.54-0.07c44.53,0,89.05,0.01,133.58-0.02
		c3.03,0,6.02,0.24,8.9,1.14c7.99,2.5,12.71,8.98,12.8,17.51c0.07,6.62,0.07,13.24,0,19.86c-0.1,9.63-6.47,16.93-15.92,18.23
		c-2.12,0.29-4.28,0.37-6.42,0.37C252.41,135.31,230.2,135.3,207.99,135.3z"/>
	<path class="st0" d="M262.45,294.02c-2.68-1.55-5.53-2.78-7.82-5c-4.14-4.03-6.64-8.9-6.69-14.68
		c-0.14-16.94-0.22-33.88,0.02-50.81c0.15-10.48,7.89-18.98,17.84-20.4c10.34-1.47,19.85,4.42,23.17,14.43
		c0.89,2.69,1.13,5.51,1.13,8.34c-0.01,14.66-0.21,29.32,0.06,43.97c0.22,11.79-4.33,20.07-15.52,24.19
		C270.58,295.69,266.51,295.82,262.45,294.02z"/>
	<path class="st0" d="M186.93,222.29c-0.02-11.65,9.29-21.13,20.76-21.15c11.86-0.02,21.16,9.38,21.21,21.43
		c0.04,11.55-9.41,21.16-20.81,21.17C196.22,243.75,186.95,234.35,186.93,222.29z"/>
	<path class="st0" d="M167.8,222.49c0.05,11.61-9.2,21.11-20.71,21.24c-11.79,0.14-21.22-9.32-21.3-21.36
		c-0.07-11.56,9.33-21.19,20.74-21.24C158.44,201.09,167.75,210.43,167.8,222.49z"/>
	<path class="st0" d="M269.28,192.69c-11.99,0.03-21.3-9.21-21.39-21.23c-0.09-11.54,9.33-21.18,20.75-21.24
		c11.88-0.06,21.27,9.26,21.41,21.27C290.18,182.96,280.68,192.66,269.28,192.69z"/>
	<path class="st0" d="M165.76,282.98c-7.46,13.21-21.93,14.64-31.62,7.39c-7.79-5.82-10.58-16.51-6.6-25.63
		c3.86-8.87,13.86-14.25,22.92-12.34c10.07,2.12,17.08,10.29,17.33,20.19c0.06,2.4-0.04,4.77-0.78,7.07
		C166.61,280.77,166.37,281.94,165.76,282.98z"/>
	<path class="st0" d="M137.43,190.56c-15.02-7.74-15.47-28.39-1.83-37.13c8.18-5.24,19-4.05,25.78,2.67
		c6.95,6.88,8.49,17.73,3.69,25.96c-5.17,8.88-14.85,12.61-24.94,9.62C139.19,191.43,138.27,191.08,137.43,190.56z"/>
	<path class="st0" d="M198.61,190.58c-4.15-2.07-7.21-5.29-9.56-9.27c-0.65-1.01-0.84-2.2-1.28-3.3
		c-2.92-11.38,2.06-22.16,12.16-26.3c9.9-4.06,21.03-0.07,26.3,9.43c4.08,7.36,3.42,16.85-1.62,23.26
		c-5.77,7.34-14.3,10.01-23.31,7.29C200.37,191.41,199.46,191.07,198.61,190.58z"/>
	<path class="st17" d="M262.45,294.02c4.06,0.46,8.13,0.65,12.2,0.04c-0.76,0.9-2.31,0.77-2.7,2.15c-4.32-0.16-8.6-0.64-12.85-1.41
		C260.17,294.33,261.51,295.04,262.45,294.02z"/>
	<path class="st18" d="M228.33,292.04c-2.21,0.37-4.41,0.13-6.59-0.25c-0.67-0.12-1.69-0.07-1.61-1.1c0.06-0.8,0.85-1.13,1.62-1.25
		c-0.41,1.03-0.1,1.44,1.02,1.66C224.62,291.46,226.6,291.05,228.33,292.04z"/>
	<path class="st13" d="M165.76,282.98c-0.08-1.3,0.55-2.32,1.25-3.32C167.31,281.04,166.79,282.11,165.76,282.98z"/>
	<path class="st19" d="M187.77,178.01c0.72,0.98,1.33,2.01,1.28,3.3C188,180.46,187.49,179.39,187.77,178.01z"/>
	<path class="st20" d="M137.43,190.56c1.07-0.03,1.9,0.51,2.71,1.12C138.97,191.98,138.03,191.68,137.43,190.56z"/>
	<path class="st21" d="M198.61,190.58c1.06-0.03,1.9,0.5,2.7,1.12C200.15,191.97,199.21,191.69,198.61,190.58z"/>
	<path class="st0" d="M378.38,311.66c-0.06-0.43-0.16-0.86-0.16-1.29c0-3.55-1.68-4.86-5.23-5.22
		c-10.42-1.05-19.43-5.17-25.97-13.83c-2.72-3.61-4.36-7.7-4.91-12.21c-0.5-4.03,2.12-7.81,5.8-8.54c4.35-0.86,8.26,1.3,9.2,5.53
		c1.52,6.86,5.98,10.54,12.31,12.33c10.78,3.05,20.62,1.26,29.15-6.3c4.28-3.8,6.27-8.66,4.61-14.33c-1.61-5.51-6.05-7.91-11.3-8.92
		c-8.58-1.65-17.32-1.32-25.98-1.96c-6.57-0.48-12.94-1.68-18.82-4.95c-11.48-6.39-17.47-27.46-6.4-41.62
		c4.72-6.03,10.56-10.5,17.63-13.17c2.46-0.93,3.05-2.24,2.56-4.59c-0.38-1.8-0.74-3.62-0.9-5.46c-0.37-4.47,2.32-7.98,6.49-8.64
		c4.22-0.67,7.79,1.76,8.83,6.17c0.5,2.11,0.88,4.27,1,6.42c0.11,1.95,0.91,2.54,2.75,2.69c8.28,0.68,15.96,3.12,22.58,8.43
		c5.52,4.43,9.01,10.11,10.31,17.12c0.78,4.19-1.49,8.11-5.27,9.27c-4.02,1.24-8.6-0.71-9.55-4.92c-2.14-9.48-8.92-12.8-17.25-13.96
		c-9.17-1.27-17.47,1.23-24.45,7.47c-4.04,3.61-6.05,8.18-4.64,13.72c1.43,5.65,5.67,8.12,10.89,9.34
		c6.85,1.6,13.86,1.38,20.82,1.75c6.44,0.34,12.83,0.78,19.02,2.84c10.91,3.63,15.96,11.84,17.45,22.76
		c2.29,16.82-9.42,28.64-22.13,34.02c-3.18,1.34-4.5,2.69-3.35,6.11c0.44,1.3,0.4,2.79,0.48,4.19c0.24,4.34-1.52,7.38-4.92,8.57
		c-3.58,1.26-6.86,0-9.39-3.62C378.94,315.2,378.83,313.39,378.38,311.66z"/>
	<path class="st22" d="M378.38,311.66c0.88,1.63,1.29,3.36,1.26,5.21C378.46,315.32,378.08,313.57,378.38,311.66z"/>
	<path class="st23" d="M208.21,119.65c-21.78,0-43.57,0-65.35,0c-1.07,0-2.15-0.01-3.22-0.04c-2.93-0.08-4.45-1.22-4.3-4.58
		c0.24-5.63,0.18-11.29,0.02-16.93c-0.08-2.83,1.21-3.95,3.72-4.16c0.85-0.07,1.72-0.06,2.57-0.06c44.53,0,89.07,0,133.6,0.01
		c1.17,0,2.37,0.04,3.52,0.26c1.78,0.34,2.76,1.36,2.74,3.39c-0.07,6.19-0.06,12.38-0.01,18.56c0.02,2.02-0.95,3.04-2.81,3.27
		c-1.38,0.17-2.77,0.27-4.16,0.27C252.42,119.66,230.31,119.65,208.21,119.65z"/>
	<path class="st6" d="M263.52,248.47c0-7.71-0.02-15.42,0.01-23.12c0.02-4.21,2.03-6.66,5.39-6.67c3.36-0.01,5.62,2.44,5.64,6.53
		c0.06,15.74,0.06,31.48,0,47.22c-0.02,4.02-2.41,6.6-5.66,6.54c-3.37-0.07-5.34-2.47-5.35-6.73
		C263.5,264.32,263.52,256.4,263.52,248.47z"/>
	<path class="st24" d="M208,227.79c-3.26,0.03-5.5-2.13-5.51-5.33c-0.01-3.13,2.32-5.48,5.44-5.47c2.96,0.01,5.29,2.28,5.39,5.26
		C213.44,225.43,211.2,227.76,208,227.79z"/>
	<path class="st24" d="M146.69,227.79c-3.18-0.05-5.4-2.4-5.29-5.58c0.11-3.01,2.38-5.2,5.41-5.21c3.08-0.01,5.5,2.42,5.46,5.5
		C152.23,225.64,149.91,227.84,146.69,227.79z"/>
	<path class="st24" d="M268.95,176.87c-3.12,0-5.44-2.36-5.4-5.51c0.04-3,2.64-5.51,5.62-5.42c2.81,0.08,5.3,2.65,5.29,5.46
		C274.46,174.52,272.09,176.86,268.95,176.87z"/>
	<path class="st8" d="M152.27,273.53c-0.04,2.86-2.54,5.43-5.3,5.45c-3.03,0.03-5.58-2.5-5.57-5.53c0-3.13,2.42-5.57,5.48-5.54
		C149.96,267.94,152.32,270.4,152.27,273.53z"/>
	<path class="st8" d="M146.85,176.86c-3.22,0.01-5.5-2.26-5.46-5.45c0.04-2.97,2.33-5.38,5.24-5.48c2.98-0.1,5.57,2.39,5.64,5.42
		C152.34,174.49,150.02,176.85,146.85,176.86z"/>
	<path class="st24" d="M207.95,176.87c-3.2,0.03-5.44-2.19-5.45-5.42c-0.01-3.05,2.47-5.55,5.49-5.52c2.88,0.03,5.25,2.41,5.35,5.38
		C213.44,174.45,211.12,176.83,207.95,176.87z"/>
</g>
</svg>
